<?xml version="1.0" standalone="no"?>
<!DOCTYPE svg PUBLIC "-//W3C//DTD SVG 20010904//EN"
 "http://www.w3.org/TR/2001/REC-SVG-20010904/DTD/svg10.dtd">
<svg version="1.0" xmlns="http://www.w3.org/2000/svg"
 width="350.000000pt" height="350.000000pt" viewBox="0 0 350.000000 350.000000"
 preserveAspectRatio="xMidYMid meet">

<g transform="translate(0.000000,350.000000) scale(0.100000,-0.100000)"
fill="#000000" stroke="none">
<path d="M1708 3333 c18 -2 45 -2 60 0 15 2 0 4 -33 4 -33 0 -45 -2 -27 -4z"/>
<path d="M1533 3323 c9 -2 23 -2 30 0 6 3 -1 5 -18 5 -16 0 -22 -2 -12 -5z"/>
<path d="M1893 3323 c9 -2 23 -2 30 0 6 3 -1 5 -18 5 -16 0 -22 -2 -12 -5z"/>
<path d="M1458 3313 c7 -3 16 -2 19 1 4 3 -2 6 -13 5 -11 0 -14 -3 -6 -6z"/>
<path d="M1978 3313 c7 -3 16 -2 19 1 4 3 -2 6 -13 5 -11 0 -14 -3 -6 -6z"/>
<path d="M1398 3303 c7 -3 16 -2 19 1 4 3 -2 6 -13 5 -11 0 -14 -3 -6 -6z"/>
<path d="M2038 3303 c7 -3 16 -2 19 1 4 3 -2 6 -13 5 -11 0 -14 -3 -6 -6z"/>
<path d="M1348 3293 c7 -3 16 -2 19 1 4 3 -2 6 -13 5 -11 0 -14 -3 -6 -6z"/>
<path d="M2088 3293 c7 -3 16 -2 19 1 4 3 -2 6 -13 5 -11 0 -14 -3 -6 -6z"/>
<path d="M1308 3283 c7 -3 16 -2 19 1 4 3 -2 6 -13 5 -11 0 -14 -3 -6 -6z"/>
<path d="M2128 3283 c7 -3 16 -2 19 1 4 3 -2 6 -13 5 -11 0 -14 -3 -6 -6z"/>
<path d="M1660 3267 c0 -10 52 -155 62 -175 10 -18 19 -22 47 -20 32 3 39 10
83 83 26 44 48 86 48 93 0 7 -13 12 -30 12 -26 0 -33 -7 -60 -60 -17 -33 -34
-60 -39 -60 -5 0 -17 29 -26 65 -18 64 -19 65 -51 65 -19 0 -34 -1 -34 -3z"/>
<path d="M1357 3236 c-61 -17 -87 -41 -87 -81 0 -40 36 -96 74 -114 60 -29
186 25 186 80 0 27 -26 83 -49 103 -25 23 -69 27 -124 12z m83 -66 c35 -35 21
-64 -36 -76 -22 -4 -34 0 -48 14 -23 26 -18 53 14 69 34 17 47 16 70 -7z"/>
<path d="M1985 3205 c-9 -19 -27 -60 -40 -91 l-24 -55 26 -10 c14 -5 30 -6 34
-2 16 16 78 168 71 174 -4 4 -17 10 -30 14 -19 5 -25 1 -37 -30z"/>
<path d="M2145 3191 c-64 -27 -57 -79 14 -110 27 -11 54 -21 60 -21 6 0 11 -7
11 -15 0 -8 -9 -15 -20 -15 -23 0 -70 20 -70 31 0 6 -53 29 -67 29 -2 0 -3
-12 -1 -27 4 -35 41 -61 111 -75 49 -10 62 -10 84 2 64 37 50 75 -41 109 -28
10 -51 25 -51 32 0 20 54 14 86 -10 15 -11 39 -23 53 -27 22 -5 26 -3 26 15 0
38 -50 68 -145 85 -16 3 -39 1 -50 -3z"/>
<path d="M1135 3168 c-11 -6 -22 -12 -23 -14 -2 -1 20 -43 49 -92 51 -88 53
-90 78 -79 14 6 27 12 29 13 5 3 -100 184 -107 184 -3 0 -15 -6 -26 -12z"/>
<path d="M958 3144 c-38 -20 -36 -28 2 -9 17 9 30 18 30 20 0 7 -1 6 -32 -11z"/>
<path d="M2460 3156 c0 -3 14 -12 30 -21 17 -9 30 -13 30 -11 0 3 -13 12 -30
21 -16 9 -30 13 -30 11z"/>
<path d="M827 3065 c-20 -14 -37 -28 -37 -31 0 -2 18 8 40 22 35 23 47 34 37
34 -1 0 -19 -11 -40 -25z"/>
<path d="M903 3050 c-40 -23 -73 -44 -73 -48 1 -4 32 -41 70 -82 l69 -75 73
39 c91 48 91 49 90 85 -1 41 -28 79 -73 102 -54 27 -74 24 -156 -21z m139 -37
c26 -23 22 -46 -11 -66 -38 -22 -50 -21 -78 5 -31 29 -29 41 10 61 42 20 56
21 79 0z"/>
<path d="M2382 3032 c-39 -36 -62 -66 -62 -79 0 -55 100 -121 163 -109 31 6
155 91 157 107 0 4 -11 14 -24 23 -24 15 -26 14 -77 -29 -58 -50 -67 -52 -109
-30 -42 22 -38 48 15 92 25 20 45 41 45 47 0 8 -30 35 -40 36 -3 0 -33 -26
-68 -58z"/>
<path d="M2580 3087 c0 -2 19 -17 43 -32 23 -16 37 -22 30 -14 -12 15 -73 53
-73 46z"/>
<path d="M695 2962 c-86 -73 -169 -160 -223 -232 -31 -42 -31 -41 9 5 59 68
193 202 254 253 28 23 48 41 45 42 -3 0 -41 -31 -85 -68z"/>
<path d="M2715 2989 c64 -55 199 -190 254 -254 42 -49 42 -49 10 -5 -18 25
-76 88 -129 140 -52 53 -115 111 -140 129 -44 32 -44 32 5 -10z"/>
<path d="M722 2918 c-19 -19 -15 -26 43 -64 30 -20 55 -43 55 -50 0 -18 -40
-54 -59 -54 -9 0 -41 16 -73 35 -50 31 -60 34 -78 23 -11 -7 -19 -17 -17 -22
2 -5 32 -28 68 -50 81 -52 128 -55 183 -13 75 58 68 100 -27 165 -67 45 -77
48 -95 30z"/>
<path d="M2645 2831 c-94 -23 -110 -29 -110 -46 0 -16 9 -21 43 -26 27 -3 52
-15 68 -31 23 -22 24 -28 13 -46 -10 -17 -10 -23 0 -36 8 -9 21 -16 30 -16 18
0 141 158 141 182 0 17 -42 49 -62 47 -7 -1 -62 -13 -123 -28z m95 -52 c-16
-28 -39 -35 -58 -16 -14 15 -14 17 9 26 13 5 32 10 42 10 15 1 16 -2 7 -20z"/>
<path d="M2833 2646 c-57 -28 -103 -55 -103 -59 0 -14 95 -136 106 -137 7 0
22 9 35 19 l24 19 -33 40 c-17 23 -32 43 -32 46 0 3 32 22 70 41 39 19 70 38
70 41 0 12 -21 44 -28 42 -4 -1 -53 -24 -109 -52z"/>
<path d="M412 2653 c-26 -38 -34 -53 -29 -53 2 0 16 18 31 40 29 45 28 56 -2
13z"/>
<path d="M3035 2643 c15 -24 30 -43 32 -43 7 0 -31 61 -46 73 -8 7 -2 -7 14
-30z"/>
<path d="M477 2626 c-9 -14 -17 -29 -17 -34 0 -8 182 -142 193 -142 4 0 12 10
18 22 10 18 8 24 -7 35 -17 12 -17 15 -1 47 11 25 24 35 43 38 25 3 54 31 43
42 -2 2 -61 8 -130 11 l-125 7 -17 -26z m137 -34 c2 -4 1 -14 -4 -22 -7 -11
-14 -12 -34 -2 -14 6 -26 16 -26 22 0 12 57 14 64 2z"/>
<path d="M970 2530 l0 -60 770 0 770 0 0 60 0 60 -770 0 -770 0 0 -60z"/>
<path d="M325 2510 c-9 -16 -13 -30 -11 -30 3 0 12 14 21 30 9 17 13 30 11 30
-3 0 -12 -13 -21 -30z"/>
<path d="M3115 2510 c9 -16 18 -30 21 -30 2 0 -2 14 -11 30 -9 17 -18 30 -21
30 -2 0 2 -13 11 -30z"/>
<path d="M397 2393 c-56 -109 -91 -208 -123 -340 -13 -57 -24 -105 -24 -108 0
-3 33 -5 74 -5 l74 0 11 64 c16 91 56 206 107 308 l44 87 -53 41 c-30 22 -56
40 -59 40 -3 0 -26 -39 -51 -87z"/>
<path d="M2968 2448 c-32 -17 -58 -35 -58 -40 0 -5 17 -43 39 -86 46 -93 87
-210 102 -298 l11 -64 74 0 c41 0 74 2 74 5 0 22 -54 225 -76 285 -23 66 -100
230 -107 230 -1 0 -28 -15 -59 -32z"/>
<path d="M1070 2320 l0 -60 660 0 660 0 0 60 0 60 -660 0 -660 0 0 -60z"/>
<path d="M3261 2154 c0 -11 3 -14 6 -6 3 7 2 16 -1 19 -3 4 -6 -2 -5 -13z"/>
<path d="M1190 2040 l0 -100 60 0 60 0 0 100 0 100 -60 0 -60 0 0 -100z"/>
<path d="M1430 2040 l0 -100 60 0 60 0 0 100 0 100 -60 0 -60 0 0 -100z"/>
<path d="M1670 2040 l0 -100 60 0 60 0 0 100 0 100 -60 0 -60 0 0 -100z"/>
<path d="M1910 2040 l0 -100 60 0 60 0 0 100 0 100 -60 0 -60 0 0 -100z"/>
<path d="M2150 2040 l0 -100 60 0 60 0 0 100 0 100 -60 0 -60 0 0 -100z"/>
<path d="M171 2114 c0 -11 3 -14 6 -6 3 7 2 16 -1 19 -3 4 -6 -2 -5 -13z"/>
<path d="M3271 2114 c0 -11 3 -14 6 -6 3 7 2 16 -1 19 -3 4 -6 -2 -5 -13z"/>
<path d="M161 2064 c0 -11 3 -14 6 -6 3 7 2 16 -1 19 -3 4 -6 -2 -5 -13z"/>
<path d="M3281 2064 c0 -11 3 -14 6 -6 3 7 2 16 -1 19 -3 4 -6 -2 -5 -13z"/>
<path d="M151 2004 c0 -11 3 -14 6 -6 3 7 2 16 -1 19 -3 4 -6 -2 -5 -13z"/>
<path d="M3291 2004 c0 -11 3 -14 6 -6 3 7 2 16 -1 19 -3 4 -6 -2 -5 -13z"/>
<path d="M142 1925 c0 -16 2 -22 5 -12 2 9 2 23 0 30 -3 6 -5 -1 -5 -18z"/>
<path d="M3302 1925 c0 -16 2 -22 5 -12 2 9 2 23 0 30 -3 6 -5 -1 -5 -18z"/>
<path d="M220 1686 l0 -156 35 0 35 0 0 92 c0 107 2 107 70 -10 45 -75 47 -77
88 -80 l42 -3 0 155 0 156 -35 0 -35 0 0 -75 c0 -41 -3 -75 -8 -75 -4 0 -25
33 -47 73 l-40 72 -53 3 -52 3 0 -155z"/>
<path d="M605 1825 c-22 -8 -41 -15 -42 -15 -1 0 -9 -13 -18 -30 -19 -38 -20
-152 0 -189 8 -16 29 -34 47 -42 71 -30 167 -9 193 42 18 34 20 148 3 184 -23
51 -114 76 -183 50z m113 -102 c25 -34 8 -87 -32 -97 -55 -14 -95 26 -82 80
11 44 85 54 114 17z"/>
<path d="M800 1834 c0 -5 23 -75 51 -156 l52 -148 46 0 46 0 52 155 51 155
-43 0 -42 0 -28 -97 c-15 -54 -30 -102 -34 -106 -4 -4 -21 39 -38 95 l-30 103
-41 3 c-23 2 -42 0 -42 -4z"/>
<path d="M1175 1825 c-22 -8 -41 -15 -42 -15 -1 0 -9 -13 -18 -30 -19 -38 -20
-152 0 -189 8 -16 29 -34 47 -42 71 -30 167 -9 193 42 18 34 20 148 3 184 -23
51 -114 76 -183 50z m113 -102 c25 -34 8 -87 -32 -97 -55 -14 -95 26 -82 80
11 44 85 54 114 17z"/>
<path d="M1625 1825 c-22 -8 -41 -15 -42 -15 -1 0 -9 -13 -18 -30 -19 -38 -20
-152 0 -189 8 -16 29 -34 47 -42 71 -30 167 -9 193 42 18 34 20 148 3 184 -23
51 -114 76 -183 50z m113 -102 c25 -34 8 -87 -32 -97 -55 -14 -95 26 -82 80
11 44 85 54 114 17z"/>
<path d="M1850 1685 l0 -155 115 0 115 0 0 45 0 44 -77 3 -78 3 -3 108 -3 107
-34 0 -35 0 0 -155z"/>
<path d="M2120 1685 l0 -155 35 0 35 0 0 155 0 155 -35 0 -35 0 0 -155z"/>
<path d="M2250 1685 l0 -155 35 0 35 0 0 76 c0 49 4 73 10 69 6 -4 26 -38 45
-76 47 -92 59 -90 110 14 l40 82 3 -82 3 -83 34 0 35 0 0 155 0 155 -44 0 -44
0 -41 -75 c-23 -41 -43 -75 -45 -75 -2 0 -23 34 -45 75 l-42 75 -44 0 -45 0 0
-155z"/>
<path d="M2660 1685 l0 -155 35 0 c33 0 35 2 35 35 l0 35 70 0 c61 0 74 3 95
24 45 45 45 147 0 192 -22 22 -32 24 -130 24 l-105 0 0 -155z m190 35 l0 -30
-60 0 -60 0 0 30 0 30 60 0 60 0 0 -30z"/>
<path d="M3035 1825 c-22 -8 -41 -15 -42 -15 -1 0 -9 -13 -18 -30 -19 -38 -20
-152 0 -189 8 -16 29 -34 47 -42 71 -30 167 -9 193 42 18 34 20 148 3 184 -23
51 -114 76 -183 50z m113 -102 c25 -34 8 -87 -32 -97 -55 -14 -95 26 -82 80
11 44 85 54 114 17z"/>
<path d="M133 1745 c0 -38 2 -53 4 -32 2 20 2 52 0 70 -2 17 -4 1 -4 -38z"/>
<path d="M3313 1745 c0 -38 2 -53 4 -32 2 20 2 52 0 70 -2 17 -4 1 -4 -38z"/>
<path d="M142 1565 c0 -16 2 -22 5 -12 2 9 2 23 0 30 -3 6 -5 -1 -5 -18z"/>
<path d="M3302 1565 c0 -16 2 -22 5 -12 2 9 2 23 0 30 -3 6 -5 -1 -5 -18z"/>
<path d="M151 1484 c0 -11 3 -14 6 -6 3 7 2 16 -1 19 -3 4 -6 -2 -5 -13z"/>
<path d="M3291 1484 c0 -11 3 -14 6 -6 3 7 2 16 -1 19 -3 4 -6 -2 -5 -13z"/>
<path d="M161 1424 c0 -11 3 -14 6 -6 3 7 2 16 -1 19 -3 4 -6 -2 -5 -13z"/>
<path d="M3006 1383 c-10 -32 -45 -108 -76 -170 l-58 -112 54 -31 c29 -16 57
-30 61 -30 22 0 156 280 178 373 l7 27 -74 0 -74 0 -18 -57z"/>
<path d="M3281 1424 c0 -11 3 -14 6 -6 3 7 2 16 -1 19 -3 4 -6 -2 -5 -13z"/>
<path d="M295 1393 c22 -93 156 -373 178 -373 4 0 32 14 61 30 l54 31 -58 112
c-31 62 -66 138 -76 170 l-18 57 -74 0 -74 0 7 -27z"/>
<path d="M1190 1186 l0 -234 52 -46 c29 -25 56 -46 60 -46 5 0 8 126 8 280 l0
280 -60 0 -60 0 0 -234z"/>
<path d="M1430 1320 l0 -100 60 0 60 0 0 100 0 100 -60 0 -60 0 0 -100z"/>
<path d="M1672 1068 l3 -353 58 -3 57 -3 0 356 0 355 -60 0 -60 0 2 -352z"/>
<path d="M1910 1185 l0 -235 60 0 60 0 0 235 0 235 -60 0 -60 0 0 -235z"/>
<path d="M2150 1390 l0 -30 60 0 60 0 0 30 0 30 -60 0 -60 0 0 -30z"/>
<path d="M171 1374 c0 -11 3 -14 6 -6 3 7 2 16 -1 19 -3 4 -6 -2 -5 -13z"/>
<path d="M3271 1374 c0 -11 3 -14 6 -6 3 7 2 16 -1 19 -3 4 -6 -2 -5 -13z"/>
<path d="M3261 1334 c0 -11 3 -14 6 -6 3 7 2 16 -1 19 -3 4 -6 -2 -5 -13z"/>
<path d="M2150 1070 c0 -155 3 -220 11 -220 6 0 33 18 60 41 l49 41 0 179 0
179 -60 0 -60 0 0 -220z"/>
<path d="M3216 1203 c-6 -14 -5 -15 5 -6 7 7 10 15 7 18 -3 3 -9 -2 -12 -12z"/>
<path d="M3196 1172 c-13 -21 -25 -62 -18 -62 9 0 34 62 28 68 -2 2 -7 -1 -10
-6z"/>
<path d="M1430 965 l0 -185 37 -15 c20 -9 47 -18 60 -21 l23 -6 0 206 0 206
-60 0 -60 0 0 -185z"/>
<path d="M2710 1022 c-64 -32 -97 -111 -70 -163 6 -10 17 -19 25 -19 18 0 18
5 4 31 -13 26 3 78 35 108 50 47 144 30 196 -36 51 -66 -26 -176 -111 -158
-30 7 -41 -8 -13 -19 52 -20 123 6 154 57 49 79 2 160 -117 203 -50 17 -62 17
-103 -4z"/>
<path d="M325 980 c9 -16 18 -30 21 -30 2 0 -2 14 -11 30 -9 17 -18 30 -21 30
-2 0 2 -13 11 -30z"/>
<path d="M603 995 c-47 -20 -83 -60 -83 -90 0 -78 101 -152 158 -116 19 12 -4
48 -35 56 -12 3 -30 19 -38 35 -14 28 -14 31 5 50 11 11 31 20 44 20 31 0 68
-45 61 -74 -3 -11 1 -29 9 -39 12 -15 18 -16 35 -8 73 40 5 182 -87 181 -20
-1 -52 -7 -69 -15z"/>
<path d="M3115 980 c-9 -16 -13 -30 -11 -30 3 0 12 14 21 30 9 17 13 30 11 30
-3 0 -12 -13 -21 -30z"/>
<path d="M2726 930 c-14 -22 -26 -43 -26 -47 0 -5 26 -23 58 -40 44 -24 61
-30 70 -21 8 8 7 14 -5 24 -15 10 -15 14 -4 28 8 9 22 14 31 11 9 -3 23 1 30
10 10 12 10 15 -5 15 -9 0 -30 14 -45 30 -40 43 -71 40 -104 -10z m74 -6 c0
-16 -23 -44 -35 -44 -18 0 -20 21 -3 38 12 12 38 17 38 6z"/>
<path d="M396 865 c73 -129 328 -385 445 -448 33 -17 33 -17 9 0 -115 84 -158
120 -245 208 -56 55 -121 127 -145 160 -92 124 -84 114 -64 80z"/>
<path d="M3035 848 c-95 -145 -241 -290 -435 -431 -24 -17 -24 -17 9 0 52 28
209 162 282 241 86 92 192 232 176 232 -2 0 -17 -19 -32 -42z"/>
<path d="M1910 806 l0 -75 33 10 c84 24 87 27 87 85 l0 54 -60 0 -60 0 0 -74z"/>
<path d="M2690 821 c0 -10 39 -41 52 -41 19 0 6 21 -22 35 -16 9 -30 11 -30 6z"/>
<path d="M2441 725 c-45 -35 -82 -67 -83 -72 0 -4 12 -17 26 -27 26 -20 26
-20 49 2 13 12 27 22 32 22 5 0 34 -22 66 -50 63 -55 70 -58 90 -34 11 14 5
23 -45 72 l-58 56 26 23 c32 27 32 33 2 55 -23 17 -25 16 -105 -47z"/>
<path d="M819 750 c-42 -22 -89 -74 -89 -98 0 -28 38 -81 72 -103 58 -36 147
-5 194 66 23 36 3 88 -48 126 -47 34 -78 36 -129 9z m97 -75 c19 -30 14 -48
-21 -71 -25 -16 -27 -16 -53 3 -34 25 -39 49 -16 74 25 28 70 25 90 -6z"/>
<path d="M1053 506 c-29 -52 -53 -96 -53 -99 0 -3 13 -10 29 -15 29 -10 31 -9
61 44 34 60 50 68 50 25 0 -15 3 -49 6 -75 6 -38 12 -50 36 -62 16 -8 32 -12
37 -10 18 11 112 189 104 196 -4 4 -18 11 -29 14 -18 6 -26 -1 -49 -40 -32
-55 -45 -46 -45 32 0 48 -2 51 -35 67 -20 9 -41 17 -48 17 -7 0 -36 -43 -64
-94z"/>
<path d="M2242 591 c-11 -7 -9 -19 12 -60 15 -28 24 -51 22 -51 -3 0 -34 16
-70 35 l-64 36 -42 -17 c-48 -19 -49 -15 21 -131 44 -73 54 -83 72 -77 39 11
40 22 8 74 -18 29 -30 54 -27 57 3 3 39 -13 80 -35 69 -37 79 -40 108 -30 18
6 35 12 36 14 2 1 -21 46 -52 98 -56 95 -72 108 -104 87z"/>
<path d="M1416 479 c-15 -45 -11 -54 24 -57 19 -2 38 -7 42 -10 4 -4 1 -36 -8
-72 -17 -74 -14 -90 20 -90 27 0 27 2 47 94 l13 58 42 -6 c39 -5 42 -3 49 21
3 14 2 29 -2 33 -4 4 -44 13 -88 20 -44 6 -92 14 -107 17 -18 4 -29 1 -32 -8z"/>
<path d="M1826 469 c-38 -5 -71 -11 -74 -13 -2 -3 2 -51 10 -108 l13 -103 75
3 c108 4 120 8 120 38 0 25 0 26 -64 19 -45 -5 -66 -4 -71 5 -12 19 7 28 65
32 51 3 55 5 55 28 0 23 -3 25 -40 21 -76 -8 -90 -7 -90 9 0 9 11 16 30 18 82
7 95 12 95 37 0 28 -5 29 -124 14z"/>
<path d="M930 366 c0 -3 14 -12 30 -21 17 -9 30 -13 30 -11 0 3 -13 12 -30 21
-16 9 -30 13 -30 11z"/>
<path d="M2488 354 c-38 -20 -36 -28 2 -9 17 9 30 18 30 20 0 7 -1 6 -32 -11z"/>
<path d="M1070 290 c8 -5 20 -10 25 -10 6 0 3 5 -5 10 -8 5 -19 10 -25 10 -5
0 -3 -5 5 -10z"/>
<path d="M2360 290 c-8 -5 -10 -10 -5 -10 6 0 17 5 25 10 8 5 11 10 5 10 -5 0
-17 -5 -25 -10z"/>
<path d="M1348 193 c7 -3 16 -2 19 1 4 3 -2 6 -13 5 -11 0 -14 -3 -6 -6z"/>
<path d="M2088 193 c7 -3 16 -2 19 1 4 3 -2 6 -13 5 -11 0 -14 -3 -6 -6z"/>
<path d="M1398 183 c7 -3 16 -2 19 1 4 3 -2 6 -13 5 -11 0 -14 -3 -6 -6z"/>
<path d="M2038 183 c7 -3 16 -2 19 1 4 3 -2 6 -13 5 -11 0 -14 -3 -6 -6z"/>
<path d="M1458 173 c7 -3 16 -2 19 1 4 3 -2 6 -13 5 -11 0 -14 -3 -6 -6z"/>
<path d="M1978 173 c7 -3 16 -2 19 1 4 3 -2 6 -13 5 -11 0 -14 -3 -6 -6z"/>
<path d="M1533 163 c9 -2 23 -2 30 0 6 3 -1 5 -18 5 -16 0 -22 -2 -12 -5z"/>
<path d="M1893 163 c9 -2 23 -2 30 0 6 3 -1 5 -18 5 -16 0 -22 -2 -12 -5z"/>
<path d="M1687 153 c18 -2 50 -2 70 0 21 2 7 4 -32 4 -38 0 -55 -2 -38 -4z"/>
</g>
</svg>
